<svg width="40" height="38" viewBox="0 0 40 38" fill="none" xmlns="http://www.w3.org/2000/svg">
<ellipse cx="20" cy="19" rx="20" ry="19" fill="black"/>
<path fill-rule="evenodd" clip-rule="evenodd" d="M20 7C13.376 7 8 12.376 8 19C8 25.624 13.376 31 20 31C26.612 31 32 25.624 32 19C32 12.376 26.612 7 20 7ZM27.926 12.532C29.4035 14.3308 30.2212 16.5808 30.2435 18.9085C29.9045 18.844 26.5205 18.154 23.111 18.583C23.033 18.415 22.967 18.232 22.889 18.0505C22.6805 17.5555 22.4465 17.0485 22.2125 16.5655C25.9865 15.031 27.7055 12.8185 27.9275 12.5305L27.926 12.532ZM20 8.77C22.6025 8.77 24.9845 9.745 26.795 11.347C26.612 11.608 25.0625 13.6765 21.419 15.043C19.739 11.959 17.879 9.433 17.5925 9.043C18.3818 8.8594 19.1897 8.76779 20 8.77ZM15.6395 9.733C17.0133 11.6364 18.2822 13.6133 19.4405 15.655C14.651 16.93 10.421 16.9045 9.965 16.9045C10.2953 15.3533 10.9792 13.8993 11.9635 12.6557C12.9477 11.412 14.2057 10.4109 15.6395 9.733ZM9.7445 19.015V18.7C10.187 18.715 15.1595 18.7795 20.2745 17.2435C20.573 17.815 20.846 18.4015 21.107 18.9865L20.702 19.1035C15.419 20.809 12.608 25.468 12.3725 25.8595C10.6806 23.9807 9.74441 21.5418 9.7445 19.0135V19.015ZM20 29.2555C17.7226 29.2573 15.5101 28.4969 13.715 27.0955C13.895 26.7175 15.9785 22.7095 21.7565 20.692C21.7835 20.6785 21.7955 20.6785 21.8225 20.6665C22.7961 23.1812 23.5279 25.783 24.008 28.4365C22.7423 28.9814 21.378 29.2602 20 29.2555ZM25.715 27.499C25.61 26.8735 25.0625 23.881 23.723 20.197C26.9375 19.69 29.7485 20.5225 30.0995 20.6395C29.8812 22.0236 29.3789 23.3475 28.624 24.5281C27.8692 25.7086 26.8783 26.7201 25.7135 27.499H25.715Z" fill="#F4F3EF"/>
</svg>
