<svg width="40" height="39" viewBox="0 0 40 39" fill="none" xmlns="http://www.w3.org/2000/svg">
<ellipse cx="20" cy="19.5" rx="20" ry="19.5" fill="black"/>
<path d="M20.5 7C13.0412 7 7 12.9646 7 20.3288C7 26.2268 10.8644 31.2085 16.2306 32.9745C16.9056 33.0912 17.1587 32.6913 17.1587 32.3414C17.1587 32.0249 17.1419 30.9752 17.1419 29.8589C13.75 30.4754 12.8725 29.0425 12.6025 28.2928C12.4506 27.9096 11.7925 26.7267 11.2188 26.4101C10.7462 26.1602 10.0712 25.5437 11.2019 25.5271C12.265 25.5104 13.0244 26.4934 13.2775 26.8933C14.4925 28.9092 16.4331 28.3428 17.2094 27.9929C17.3275 27.1265 17.6819 26.5434 18.07 26.2102C15.0662 25.8769 11.9275 24.7273 11.9275 19.6291C11.9275 18.1795 12.4506 16.98 13.3113 16.0469C13.1762 15.7137 12.7037 14.3475 13.4462 12.5148C13.4462 12.5148 14.5769 12.1649 17.1587 13.881C18.2387 13.5811 19.3863 13.4312 20.5338 13.4312C21.6813 13.4312 22.8288 13.5811 23.9088 13.881C26.4906 12.1483 27.6213 12.5148 27.6213 12.5148C28.3638 14.3475 27.8913 15.7137 27.7563 16.0469C28.6169 16.98 29.14 18.1629 29.14 19.6291C29.14 24.744 25.9844 25.8769 22.9806 26.2102C23.47 26.6267 23.8919 27.4264 23.8919 28.676C23.8919 30.4587 23.875 31.8916 23.875 32.3414C23.875 32.6913 24.1281 33.1078 24.8031 32.9745C27.4835 32.0819 29.8128 30.3815 31.4627 28.1129C33.1126 25.8443 34 23.1217 34 20.3288C34 12.9646 27.9587 7 20.5 7Z" fill="#F4F3EF"/>
</svg>
