<svg width="40" height="39" viewBox="0 0 40 39" fill="none" xmlns="http://www.w3.org/2000/svg">
<ellipse cx="20" cy="19.5" rx="20" ry="19.5" fill="black"/>
<path d="M20 8C16.7435 8 16.334 8.015 15.0545 8.072C13.775 8.132 12.9035 8.333 12.14 8.63C11.3388 8.93049 10.6132 9.4031 10.0145 10.0145C9.4031 10.6132 8.93049 11.3388 8.63 12.14C8.333 12.902 8.1305 13.775 8.072 15.05C8.015 16.3325 8 16.7405 8 20.0015C8 23.2595 8.015 23.6675 8.072 24.947C8.132 26.225 8.333 27.0965 8.63 27.86C8.9375 28.649 9.347 29.318 10.0145 29.9855C10.6805 30.653 11.3495 31.064 12.1385 31.37C12.9035 31.667 13.7735 31.8695 15.0515 31.928C16.3325 31.985 16.7405 32 20 32C23.2595 32 23.666 31.985 24.947 31.928C26.2235 31.868 27.098 31.667 27.8615 31.37C28.6622 31.0693 29.3872 30.5967 29.9855 29.9855C30.653 29.318 31.0625 28.649 31.37 27.86C31.6655 27.0965 31.868 26.225 31.928 24.947C31.985 23.6675 32 23.2595 32 20C32 16.7405 31.985 16.3325 31.928 15.0515C31.868 13.775 31.6655 12.902 31.37 12.14C31.0695 11.3388 30.5969 10.6132 29.9855 10.0145C29.3868 9.4031 28.6612 8.93049 27.86 8.63C27.095 8.333 26.222 8.1305 24.9455 8.072C23.6645 8.015 23.258 8 19.997 8H20ZM18.9245 10.163H20.0015C23.2055 10.163 23.585 10.1735 24.8495 10.232C26.0195 10.2845 26.6555 10.481 27.0785 10.6445C27.638 10.862 28.0385 11.123 28.4585 11.543C28.8785 11.963 29.138 12.362 29.3555 12.923C29.5205 13.3445 29.7155 13.9805 29.768 15.1505C29.8265 16.415 29.8385 16.7945 29.8385 19.997C29.8385 23.1995 29.8265 23.5805 29.768 24.845C29.7155 26.015 29.519 26.6495 29.3555 27.0725C29.1617 27.5929 28.8549 28.0637 28.457 28.451C28.037 28.871 27.638 29.1305 27.077 29.348C26.657 29.513 26.021 29.708 24.8495 29.762C23.585 29.819 23.2055 29.8325 20.0015 29.8325C16.7975 29.8325 16.4165 29.819 15.152 29.762C13.982 29.708 13.3475 29.513 12.9245 29.348C12.4037 29.1549 11.9324 28.8485 11.5445 28.451C11.1459 28.0634 10.8385 27.592 10.6445 27.071C10.481 26.6495 10.2845 26.0135 10.232 24.8435C10.175 23.579 10.163 23.1995 10.163 19.994C10.163 16.7885 10.175 16.412 10.232 15.1475C10.286 13.9775 10.481 13.3415 10.646 12.9185C10.8635 12.359 11.1245 11.9585 11.5445 11.5385C11.9645 11.1185 12.3635 10.859 12.9245 10.6415C13.3475 10.4765 13.982 10.2815 15.152 10.2275C16.259 10.1765 16.688 10.1615 18.9245 10.16V10.163ZM26.4065 12.155C26.2174 12.155 26.0301 12.1922 25.8554 12.2646C25.6807 12.337 25.522 12.443 25.3883 12.5768C25.2545 12.7105 25.1485 12.8692 25.0761 13.0439C25.0037 13.2186 24.9665 13.4059 24.9665 13.595C24.9665 13.7841 25.0037 13.9714 25.0761 14.1461C25.1485 14.3208 25.2545 14.4795 25.3883 14.6132C25.522 14.747 25.6807 14.853 25.8554 14.9254C26.0301 14.9978 26.2174 15.035 26.4065 15.035C26.7884 15.035 27.1547 14.8833 27.4247 14.6132C27.6948 14.3432 27.8465 13.9769 27.8465 13.595C27.8465 13.2131 27.6948 12.8468 27.4247 12.5768C27.1547 12.3067 26.7884 12.155 26.4065 12.155ZM20.0015 13.838C19.1841 13.8252 18.3723 13.9752 17.6135 14.2792C16.8546 14.5832 16.1638 15.0351 15.5812 15.6086C14.9987 16.1822 14.536 16.8659 14.2203 17.6199C13.9045 18.3739 13.7419 19.1833 13.7419 20.0007C13.7419 20.8182 13.9045 21.6276 14.2203 22.3816C14.536 23.1356 14.9987 23.8193 15.5812 24.3929C16.1638 24.9664 16.8546 25.4183 17.6135 25.7223C18.3723 26.0263 19.1841 26.1763 20.0015 26.1635C21.6193 26.1383 23.1623 25.4779 24.2975 24.3249C25.4326 23.1719 26.0689 21.6188 26.0689 20.0007C26.0689 18.3827 25.4326 16.8296 24.2975 15.6766C23.1623 14.5236 21.6193 13.8632 20.0015 13.838ZM20.0015 15.9995C20.5269 15.9995 21.0471 16.103 21.5324 16.304C22.0178 16.5051 22.4588 16.7997 22.8303 17.1712C23.2018 17.5427 23.4964 17.9837 23.6975 18.4691C23.8985 18.9544 24.002 19.4746 24.002 20C24.002 20.5254 23.8985 21.0456 23.6975 21.5309C23.4964 22.0163 23.2018 22.4573 22.8303 22.8288C22.4588 23.2003 22.0178 23.4949 21.5324 23.696C21.0471 23.897 20.5269 24.0005 20.0015 24.0005C18.9405 24.0005 17.923 23.579 17.1727 22.8288C16.4225 22.0785 16.001 21.061 16.001 20C16.001 18.939 16.4225 17.9215 17.1727 17.1712C17.923 16.421 18.9405 15.9995 20.0015 15.9995Z" fill="#F4F3EF"/>
</svg>
