<svg width="40" height="39" viewBox="0 0 40 39" fill="none" xmlns="http://www.w3.org/2000/svg">
<ellipse cx="20" cy="19.5" rx="20" ry="19.5" fill="black"/>
<path d="M13.592 11.152V28H9.488V11.152H13.592ZM24.7261 14.464C26.2941 14.464 27.5421 14.976 28.4701 16C29.4141 17.008 29.8861 18.4 29.8861 20.176V28H25.8061V20.728C25.8061 19.832 25.5741 19.136 25.1101 18.64C24.6461 18.144 24.0221 17.896 23.2381 17.896C22.4541 17.896 21.8301 18.144 21.3661 18.64C20.9021 19.136 20.6701 19.832 20.6701 20.728V28H16.5661V14.608H20.6701V16.384C21.0861 15.792 21.6461 15.328 22.3501 14.992C23.0541 14.64 23.8461 14.464 24.7261 14.464Z" fill="#F4F3EF"/>
</svg>
