<svg width="41" height="39" viewBox="0 0 41 39" fill="none" xmlns="http://www.w3.org/2000/svg">
<ellipse cx="20.5" cy="19.5" rx="20.5" ry="19.5" fill="black"/>
<path d="M17.6332 12.9097L13.8432 12.9819C12.2889 13.0115 10.7865 13.6573 9.66656 14.7773C8.54659 15.8973 7.90077 17.3996 7.87117 18.9539C7.84158 20.5082 8.43064 21.9871 9.50876 23.0652C10.5869 24.1433 12.0658 24.7324 13.62 24.7028L18.6711 24.6053C19.6085 24.5873 20.5364 24.3448 21.377 23.8981C22.2177 23.4513 22.9465 22.8134 23.5023 22.0378C24.0581 21.2622 24.4246 20.3716 24.5712 19.4407C24.7178 18.5098 24.6401 17.5658 24.3447 16.688L22.7259 16.7188C22.5614 16.722 22.3972 16.746 22.2372 16.7902C22.5551 17.3788 22.7106 18.0461 22.6883 18.7262C22.666 19.4062 22.4668 20.0754 22.1102 20.6676C21.7537 21.2598 21.2522 21.7545 20.6553 22.1028C20.0584 22.4511 19.3868 22.641 18.7069 22.6536L13.6586 22.7511C12.6219 22.7709 11.6355 22.378 10.9164 21.6589C10.1973 20.9398 9.80446 19.9534 9.8242 18.9168C9.84394 17.8801 10.2747 16.878 11.0217 16.131C11.7687 15.384 12.7708 14.9533 13.8074 14.9335L15.9966 14.8932C16.4346 14.1511 16.9865 13.4822 17.6332 12.9097Z" fill="#F4F3EF"/>
<path d="M22.7021 12.7665C21.734 12.7538 20.7832 12.9735 19.9293 13.4072C19.0755 13.8409 18.3436 14.476 17.795 15.259C17.2464 16.042 16.8973 16.9502 16.7767 17.9073C16.6562 18.8644 16.7679 19.8425 17.1024 20.7595L19.3148 20.7872C18.9528 20.1691 18.7574 19.4709 18.7483 18.7628C18.7391 18.0546 18.9165 17.3615 19.2626 16.7529C19.6087 16.1443 20.1113 15.6418 20.72 15.2959C21.3286 14.9499 22.0219 14.7727 22.73 14.7821L27.9437 14.8493C29.0144 14.8634 30.0468 15.3022 30.8138 16.0692C31.5808 16.8362 32.0197 17.8686 32.0338 18.9393C32.0478 20.0099 31.636 21.0311 30.8889 21.7782C30.1418 22.5253 29.1206 22.9371 28.05 22.9231L25.789 22.8919C25.3597 23.645 24.8095 24.3195 24.1623 24.8886L28.0765 24.9401C29.6818 24.9612 31.2128 24.3438 32.333 23.2237C33.4531 22.1035 34.0705 20.5725 34.0494 18.9672C34.0282 17.362 33.3703 15.8142 32.2203 14.6642C31.0703 13.5142 29.5224 12.8562 27.9172 12.8351L22.7021 12.7665Z" fill="#F4F3EF"/>
</svg>
