<svg width="92" height="92" viewBox="0 0 92 92" fill="none" xmlns="http://www.w3.org/2000/svg">
<circle cx="46" cy="46" r="46" fill="black"/>
<circle cx="46.5" cy="46.5" r="36" fill="black" stroke="#F4F3EF"/>
<path d="M37.448 40.848L33.24 52H31.56L27.352 40.848H28.904L32.408 50.464L35.912 40.848H37.448ZM39.7965 41.808C39.5192 41.808 39.2845 41.712 39.0925 41.52C38.9005 41.328 38.8045 41.0933 38.8045 40.816C38.8045 40.5387 38.9005 40.304 39.0925 40.112C39.2845 39.92 39.5192 39.824 39.7965 39.824C40.0632 39.824 40.2872 39.92 40.4685 40.112C40.6605 40.304 40.7565 40.5387 40.7565 40.816C40.7565 41.0933 40.6605 41.328 40.4685 41.52C40.2872 41.712 40.0632 41.808 39.7965 41.808ZM40.5005 43.232V52H39.0445V43.232H40.5005ZM50.982 47.28C50.982 47.5573 50.966 47.8507 50.934 48.16H43.926C43.9793 49.024 44.2727 49.7013 44.806 50.192C45.35 50.672 46.006 50.912 46.774 50.912C47.4033 50.912 47.926 50.768 48.342 50.48C48.7687 50.1813 49.0673 49.7867 49.238 49.296H50.806C50.5713 50.1387 50.102 50.8267 49.398 51.36C48.694 51.8827 47.8193 52.144 46.774 52.144C45.942 52.144 45.1953 51.9573 44.534 51.584C43.8833 51.2107 43.3713 50.6827 42.998 50C42.6247 49.3067 42.438 48.5067 42.438 47.6C42.438 46.6933 42.6193 45.8987 42.982 45.216C43.3447 44.5333 43.8513 44.0107 44.502 43.648C45.1633 43.2747 45.9207 43.088 46.774 43.088C47.606 43.088 48.342 43.2693 48.982 43.632C49.622 43.9947 50.1127 44.496 50.454 45.136C50.806 45.7653 50.982 46.48 50.982 47.28ZM49.478 46.976C49.478 46.4213 49.3553 45.9467 49.11 45.552C48.8647 45.1467 48.5287 44.8427 48.102 44.64C47.686 44.4267 47.222 44.32 46.71 44.32C45.974 44.32 45.3447 44.5547 44.822 45.024C44.31 45.4933 44.0167 46.144 43.942 46.976H49.478ZM64.5839 43.232L61.8479 52H60.3439L58.2319 45.04L56.1199 52H54.6159L51.8639 43.232H53.3519L55.3679 50.592L57.5439 43.232H59.0319L61.1599 50.608L63.1439 43.232H64.5839Z" fill="#F4F3EF"/>
</svg>
